<svg width="30" height="29" viewBox="0 0 30 29" fill="none" xmlns="http://www.w3.org/2000/svg">
<rect x="0.657196" y="0.231567" width="28.4868" height="28.4868" rx="7.59649" fill="url(#paint0_radial_2_3721)"/>
<g clip-path="url(#clip0_2_3721)">
<path d="M14.8948 8.24626C16.9245 8.24626 17.1648 8.25516 17.9631 8.29077C18.7049 8.32341 19.1055 8.44804 19.3726 8.5519C19.7257 8.6884 19.9809 8.85457 20.245 9.11867C20.512 9.38573 20.6753 9.63796 20.8118 9.99108C20.9156 10.2581 21.0402 10.6617 21.0729 11.4006C21.1085 12.2018 21.1174 12.4421 21.1174 14.4689C21.1174 16.4985 21.1085 16.7389 21.0729 17.5371C21.0402 18.279 20.9156 18.6796 20.8118 18.9466C20.6753 19.2997 20.5091 19.5549 20.245 19.819C19.9779 20.0861 19.7257 20.2493 19.3726 20.3858C19.1055 20.4897 18.7019 20.6143 17.9631 20.6469C17.1619 20.6825 16.9215 20.6914 14.8948 20.6914C12.8651 20.6914 12.6248 20.6825 11.8265 20.6469C11.0847 20.6143 10.6841 20.4897 10.417 20.3858C10.0639 20.2493 9.80871 20.0831 9.54462 19.819C9.27755 19.552 9.11435 19.2997 8.97785 18.9466C8.87399 18.6796 8.74936 18.276 8.71672 17.5371C8.68111 16.7359 8.67221 16.4956 8.67221 14.4689C8.67221 12.4392 8.68111 12.1988 8.71672 11.4006C8.74936 10.6587 8.87399 10.2581 8.97785 9.99108C9.11435 9.63796 9.28052 9.38276 9.54462 9.11867C9.81168 8.8516 10.0639 8.6884 10.417 8.5519C10.6841 8.44804 11.0877 8.32341 11.8265 8.29077C12.6248 8.25516 12.8651 8.24626 14.8948 8.24626ZM14.8948 6.8783C12.8325 6.8783 12.5743 6.8872 11.7642 6.92281C10.9571 6.95842 10.4022 7.08898 9.92147 7.27592C9.41999 7.47177 8.99565 7.72993 8.57428 8.15427C8.14995 8.57564 7.89179 8.99997 7.69594 9.49849C7.50899 9.98218 7.37843 10.5341 7.34282 11.3412C7.30721 12.1543 7.29831 12.4125 7.29831 14.4748C7.29831 16.5371 7.30721 16.7953 7.34282 17.6054C7.37843 18.4125 7.50899 18.9674 7.69594 19.4481C7.89179 19.9496 8.14995 20.3739 8.57428 20.7953C8.99565 21.2167 9.41999 21.4778 9.91851 21.6707C10.4022 21.8576 10.9541 21.9882 11.7612 22.0238C12.5713 22.0594 12.8295 22.0683 14.8918 22.0683C16.9542 22.0683 17.2123 22.0594 18.0224 22.0238C18.8295 21.9882 19.3844 21.8576 19.8652 21.6707C20.3637 21.4778 20.788 21.2167 21.2094 20.7953C21.6308 20.3739 21.8919 19.9496 22.0848 19.4511C22.2717 18.9674 22.4023 18.4155 22.4379 17.6083C22.4735 16.7982 22.4824 16.5401 22.4824 14.4778C22.4824 12.4154 22.4735 12.1573 22.4379 11.3472C22.4023 10.54 22.2717 9.98514 22.0848 9.50443C21.8978 8.99997 21.6397 8.57564 21.2153 8.15427C20.794 7.7329 20.3696 7.47177 19.8711 7.27889C19.3874 7.09195 18.8355 6.96138 18.0284 6.92577C17.2153 6.8872 16.9571 6.8783 14.8948 6.8783Z" fill="white" fill-opacity="0.45"/>
<path d="M14.8984 10.5728C12.744 10.5728 10.9962 12.3205 10.9962 14.4749C10.9962 16.6292 12.744 18.377 14.8984 18.377C17.0527 18.377 18.8005 16.6292 18.8005 14.4749C18.8005 12.3205 17.0527 10.5728 14.8984 10.5728ZM14.8984 17.006C13.5007 17.006 12.3672 15.8725 12.3672 14.4749C12.3672 13.0772 13.5007 11.9437 14.8984 11.9437C16.296 11.9437 17.4295 13.0772 17.4295 14.4749C17.4295 15.8725 16.296 17.006 14.8984 17.006Z" fill="white" fill-opacity="0.45"/>
<path d="M19.8612 10.4173C19.8612 10.9218 19.4517 11.3283 18.9503 11.3283C18.4458 11.3283 18.0393 10.9188 18.0393 10.4173C18.0393 9.91288 18.4488 9.50635 18.9503 9.50635C19.4517 9.50635 19.8612 9.91585 19.8612 10.4173Z" fill="white" fill-opacity="0.45"/>
</g>
<defs>
<radialGradient id="paint0_radial_2_3721" cx="0" cy="0" r="1" gradientUnits="userSpaceOnUse" gradientTransform="translate(8.99276 30.9325) scale(37.7539 37.7754)">
<stop offset="0.0969388" stop-color="#FFD879"/>
<stop offset="0.1539" stop-color="#FCCB76"/>
<stop offset="0.2583" stop-color="#F5AA6C"/>
<stop offset="0.3976" stop-color="#E9755E"/>
<stop offset="0.449" stop-color="#E45F58"/>
<stop offset="0.6786" stop-color="#D22A9C"/>
<stop offset="1" stop-color="#6968DF"/>
</radialGradient>
<clipPath id="clip0_2_3721">
<rect width="15.193" height="15.193" fill="white" transform="translate(7.30618 6.87866)"/>
</clipPath>
</defs>
</svg>
