<svg width="30" height="29" viewBox="0 0 30 29" fill="none" xmlns="http://www.w3.org/2000/svg">
<rect x="0.70401" y="0.231567" width="28.4868" height="28.4868" rx="7.59649" fill="url(#paint0_linear_2_3728)"/>
<g clip-path="url(#clip0_2_3728)">
<path d="M21.4143 6.87842H8.46762C7.84743 6.87842 7.34595 7.36804 7.34595 7.97338V20.9735C7.34595 21.5788 7.84743 22.0714 8.46762 22.0714H21.4143C22.0345 22.0714 22.5389 21.5788 22.5389 20.9764V7.97338C22.5389 7.36804 22.0345 6.87842 21.4143 6.87842ZM11.8534 19.8251H9.59819V12.5728H11.8534V19.8251ZM10.7258 11.5847C10.0018 11.5847 9.41718 11.0001 9.41718 10.279C9.41718 9.55796 10.0018 8.97339 10.7258 8.97339C11.4469 8.97339 12.0314 9.55796 12.0314 10.279C12.0314 10.9971 11.4469 11.5847 10.7258 11.5847ZM20.2926 19.8251H18.0404V16.2998C18.0404 15.4601 18.0255 14.377 16.8683 14.377C15.6962 14.377 15.5181 15.2939 15.5181 16.2405V19.8251H13.2688V12.5728H15.4291V13.5639H15.4588C15.7585 12.9942 16.4944 12.3918 17.5893 12.3918C19.8713 12.3918 20.2926 13.8933 20.2926 15.8458V19.8251Z" fill="white" fill-opacity="0.45"/>
</g>
<defs>
<linearGradient id="paint0_linear_2_3728" x1="4.50226" y1="-19.75" x2="14.9474" y2="28.7184" gradientUnits="userSpaceOnUse">
<stop stop-color="#0094FF"/>
<stop offset="1" stop-color="#135C92"/>
</linearGradient>
<clipPath id="clip0_2_3728">
<rect width="15.193" height="15.193" fill="white" transform="translate(7.35291 6.87866)"/>
</clipPath>
</defs>
</svg>
